<svg width="1440" height="127" viewBox="0 0 1440 127" fill="none" xmlns="http://www.w3.org/2000/svg">
<g clip-path="url(#clip0)">
<path d="M470.663 39.9757C183.064 39.9757 191.566 88 0 88V140.5L1441 133V60.9864C1290.45 -26.5581 1057.37 29.5725 927.322 49.4805C673.687 88.3085 758.263 39.9757 470.663 39.9757Z" fill="#F0F8F2"/>
<path d="M175.5 40.0013C51.0001 78.0013 30.791 114.942 0 126.983H1440C1440 126.983 1295.7 -37.4806 1035.35 8.00909C775 53.4987 709.757 115.752 545.5 107.001C381.244 98.251 300 2.00127 175.5 40.0013Z" fill="white" fill-opacity="0.5"/>
</g>
<defs>
<clipPath id="clip0">
<rect width="1440" height="127" fill="white" transform="matrix(-1 0 0 1 1440 0)"/>
</clipPath>
</defs>
</svg>
