<svg width="46" height="46" viewBox="0 0 46 46" fill="none" xmlns="http://www.w3.org/2000/svg">
<circle cx="23" cy="23" r="22" stroke="white" stroke-width="2"/>
<path fill-rule="evenodd" clip-rule="evenodd" d="M18.6316 24.7218V23.5556H17.5263V22.4444H18.6316V21.3333H17.5263V20.2222H18.6316V19.1111H17.5263V18H18.6316V16.8889H17.5263V15.7778H18.6316V14.6667H17.5263V13.5556H18.6316V12.4444H17.5263V11.3333H18.6316V10.2222H17.5263V9.11111H14.2056C13.5979 9.11111 13.1053 9.61696 13.1053 10.2172V35.7828C13.1053 36.3937 13.6078 36.8889 14.2105 36.8889H30.7895C31.3999 36.8889 31.8947 36.3945 31.8947 35.7851V16.8889H27.4714C26.2518 16.8889 25.2632 15.9038 25.2632 14.6601V9.11111H19.7368V10.2222H20.8421V11.3333H19.7368V12.4444H20.8421V13.5556H19.7368V14.6667H20.8421V15.7778H19.7368V16.8889H20.8421V18H19.7368V19.1111H20.8421V20.2222H19.7368V21.3333H20.8421V22.4444H19.7368V23.5556V24.7216C21.0047 24.9778 21.9474 26.0995 21.9474 27.4444C21.9474 28.9893 20.7103 30.2222 19.1842 30.2222C17.6475 30.2222 16.4211 28.9786 16.4211 27.4444C16.4211 26.0912 17.3703 24.9773 18.6316 24.7218ZM33 15.7778V35.788C33 37.002 32.0116 38 30.7923 38H14.2077C12.9847 38 12 37.0014 12 35.7696V10.2304C12 8.99815 12.9911 8 14.2136 8H26.3684L33 15.7778ZM26.3684 9.66667V14.6569C26.3684 15.2759 26.8665 15.7778 27.4701 15.7778H31.5631L26.3684 9.66667ZM19.1842 25.7778C18.2686 25.7778 17.5263 26.5176 17.5263 27.4444C17.5263 28.3649 18.2622 29.1111 19.1842 29.1111C20.0998 29.1111 20.8421 28.3713 20.8421 27.4444C20.8421 26.524 20.1062 25.7778 19.1842 25.7778Z" fill="white"/>
</svg>
