<svg width="1440" height="709" viewBox="0 0 1440 709" fill="none" xmlns="http://www.w3.org/2000/svg">
<g clip-path="url(#clip0)">
<rect width="1440" height="709" transform="matrix(1 0 0 -1 0 709)" fill="white"/>
<rect width="1440" height="709" fill="#F7FBF8"/>
<path fill-rule="evenodd" clip-rule="evenodd" d="M555.169 503.321C568.208 506.65 581.437 505.285 594.265 509.353C611.088 514.688 632.017 515.867 641.53 530.708C651.028 545.524 642.682 564.888 641.092 582.405C639.405 600.983 645.464 623.602 631.929 636.464C618.228 649.485 594.791 637.762 576.777 643.527C558.039 649.523 544.797 674.931 525.632 670.48C506.757 666.096 502.524 640.751 492.795 624.022C484.877 610.408 476.957 597.186 474.014 581.721C470.966 565.701 471.277 549.535 475.633 533.819C480.581 515.967 483.369 492.106 500.692 485.463C518.903 478.48 536.269 498.496 555.169 503.321Z" fill="#B4DDBF" fill-opacity="0.4"/>
<path fill-rule="evenodd" clip-rule="evenodd" d="M-38.1012 365.681C-30.5012 338.874 -21.9002 313.477 -13.5578 286.903C-4.03371 256.565 -12.5611 212.112 14.8262 197.086C44.6121 180.744 79.5071 222.901 112.875 217.537C142.919 212.707 159.814 175.519 189.554 168.998C223.285 161.602 261.474 160.663 291.319 178.41C321.295 196.235 334.151 233.151 350.322 264.597C366.916 296.866 391.322 329.391 387.624 365.681C383.914 402.097 354.1 429.427 330.71 457.072C311.002 480.366 284.413 494.611 261.573 514.666C237.92 535.434 224.122 576.623 193.024 577.966C159.72 579.405 141.85 534.713 111.244 521.16C87.3403 510.575 60.2456 515.308 35.185 508.074C0.330159 498.012 -48.5929 502.996 -65.5052 470.136C-82.1231 437.848 -48.0414 400.743 -38.1012 365.681Z" fill="#B4DDBF" fill-opacity="0.4"/>
</g>
<defs>
<clipPath id="clip0">
<rect width="1440" height="709" fill="white" transform="matrix(1 0 0 -1 0 709)"/>
</clipPath>
</defs>
</svg>
