<svg width="1440" height="1024" viewBox="0 0 1440 1024" fill="none" xmlns="http://www.w3.org/2000/svg">
<g clip-path="url(#clip0)">
<rect y="887" width="1440" height="137" fill="#F0F8F2"/>
<path d="M470.5 936.5C183 936.5 191.5 984.5 0 984.5V0H1440.5V957.5C1290 870 1057 926.102 927 946C673.453 984.808 758 936.5 470.5 936.5Z" fill="#92C0A3"/>
<path d="M175.5 937.001C51.0001 975.001 30.791 1011.94 0 1023.98H1440C1440 1023.98 1295.7 859.519 1035.35 905.009C775 950.499 709.757 1012.75 545.5 1004C381.244 995.251 300 899.001 175.5 937.001Z" fill="white" fill-opacity="0.5"/>
<path fill-rule="evenodd" clip-rule="evenodd" d="M139.521 172.193C179.393 169.7 217.309 191.787 249.895 214.899C280.288 236.456 290.454 277.448 319.977 300.183C360.731 331.568 444.563 321.74 454.233 372.261C464.106 423.843 383.316 448.272 357.023 493.735C339.443 524.135 338.341 560.128 326.47 593.178C310.399 637.919 317.739 704.645 274.316 723.996C230.249 743.634 187.74 678.079 139.521 676.491C93.5642 674.977 54.4081 722.086 8.93628 715.254C-36.9047 708.367 -71.0009 670.387 -105.7 639.649C-144.789 605.022 -188.917 572.068 -207.705 523.344C-227.083 473.09 -239.55 410.157 -212.048 363.848C-182.886 314.744 -114.267 309.075 -64.1695 281.654C-30.6673 263.316 1.95723 246.375 35.5997 228.296C70.7163 209.425 99.7331 174.68 139.521 172.193Z" fill="#B4DDBF" fill-opacity="0.2"/>
<path fill-rule="evenodd" clip-rule="evenodd" d="M811.1 643.486C835.094 636.719 857.257 613.34 881.204 620.27C903.939 626.849 908.911 657.469 923.547 676.026C938.087 694.461 961.14 707.29 967.621 729.837C974.134 752.496 965.953 776.618 958.931 799.125C952.217 820.648 946.7 846.091 927.597 858.135C907.71 870.672 881.022 857.638 858.055 862.723C841.069 866.483 828.189 880.664 811.1 883.926C792.365 887.502 772.515 889.033 754.612 882.467C736.242 875.73 723.397 859.955 709.175 846.544C693.265 831.542 674.009 818.766 665.651 798.582C656.957 777.586 658.175 753.886 661.503 731.413C664.971 707.998 666.791 680.187 685.368 665.46C704.705 650.13 733.467 659.324 757.798 655.071C775.936 651.901 793.379 648.483 811.1 643.486Z" fill="#B4DDBF" fill-opacity="0.2"/>
<path fill-rule="evenodd" clip-rule="evenodd" d="M1274.65 46.0006C1321.35 45.816 1355.36 90.7217 1390.91 121.007C1420.81 146.471 1446.62 175.567 1466.51 209.426C1484.84 240.624 1497.61 274.602 1502.24 310.489C1506.66 344.691 1485.77 378.422 1492.7 412.205C1505.57 474.897 1574.29 527.351 1559.53 589.624C1547.05 642.29 1480.58 666.937 1428.68 682.289C1378.74 697.059 1326.52 678.417 1274.65 673.89C1226.67 669.704 1168.79 688.763 1133.04 656.493C1094.52 621.731 1122.12 550.376 1091.44 508.535C1062.59 469.184 981.561 479.332 968.646 432.278C956.003 386.215 1019.83 352.854 1036.42 308.062C1050.5 270.042 1036.12 223.857 1058.4 189.981C1080.9 155.765 1124.73 144.62 1158.82 121.924C1197.74 96.0154 1227.9 46.1853 1274.65 46.0006Z" fill="white" fill-opacity="0.2"/>
</g>
<defs>
<clipPath id="clip0">
<rect width="1440" height="1024" fill="white" transform="matrix(-1 0 0 1 1440 0)"/>
</clipPath>
</defs>
</svg>
