<svg width="29" height="29" viewBox="0 0 29 29" fill="none" xmlns="http://www.w3.org/2000/svg">
<path d="M27.3656 18.4395L23.6327 14.7195C23.3438 14.4309 22.9908 14.2149 22.6023 14.0892C22.2139 13.9634 21.8012 13.9315 21.3981 13.9961C21.0149 14.0597 20.651 14.2088 20.3335 14.4325C20.0159 14.6561 19.7529 14.9485 19.5639 15.2878L18.7631 16.3211C18.7038 16.3961 18.6295 16.4577 18.545 16.5022C18.4605 16.5467 18.3676 16.573 18.2722 16.5795C18.1793 16.5854 18.0861 16.5712 17.9992 16.5377C17.9122 16.5043 17.8335 16.4524 17.7685 16.3857L12.0335 10.612C11.9678 10.5436 11.9167 10.4624 11.8834 10.3736C11.85 10.2848 11.8352 10.1901 11.8397 10.0953C11.8479 10.0022 11.875 9.91181 11.9195 9.82962C11.9639 9.74743 12.0247 9.6752 12.0981 9.61738L13.1314 8.81655C13.4707 8.62759 13.7631 8.36454 13.9867 8.04699C14.2104 7.72943 14.3595 7.36554 14.4231 6.98238C14.4898 6.57724 14.459 6.16202 14.3332 5.77116C14.2074 5.3803 13.9902 5.02506 13.6997 4.73488L9.941 1.01488C9.25657 0.36337 8.34781 0 7.40287 0C6.45793 0 5.54918 0.36337 4.86475 1.01488L0.847663 5.04488C-0.276087 6.15571 -0.289003 8.05447 0.847663 10.7024C1.52157 12.4066 2.48757 13.9802 3.70225 15.3524L13.0797 24.7299C14.452 25.9446 16.0256 26.9106 17.7297 27.5845C18.7891 28.0596 19.9283 28.3312 21.0881 28.3853C21.5093 28.4086 21.9308 28.3449 22.3263 28.1982C22.7219 28.0516 23.083 27.825 23.3872 27.5328L27.4172 23.5157C28.0801 22.8339 28.4466 21.9178 28.4369 20.9669C28.4273 20.0161 28.0422 19.1076 27.3656 18.4395ZM25.4927 21.6428L21.4627 25.6599C20.7006 26.2153 16.451 24.3682 14.901 22.857L5.5235 13.4795C3.9735 11.9165 2.16516 7.71863 2.72058 6.9178L6.73766 2.8878C6.91394 2.72623 7.14438 2.6366 7.3835 2.6366C7.62262 2.6366 7.85305 2.72623 8.02933 2.8878L11.7493 6.54322L10.4577 7.52488C10.0859 7.81524 9.77897 8.18011 9.55653 8.59607C9.3341 9.01203 9.20107 9.4699 9.166 9.9403C9.13449 10.415 9.20461 10.891 9.37166 11.3365C9.53871 11.782 9.79886 12.1867 10.1347 12.5236L15.8697 18.2586C16.2047 18.5973 16.6091 18.8593 17.0551 19.0265C17.5011 19.1938 17.978 19.2623 18.4531 19.2274C18.9235 19.1923 19.3813 19.0593 19.7973 18.8368C20.2133 18.6144 20.5781 18.3075 20.8685 17.9357L21.7339 16.8249V16.7603V16.644L25.4668 20.3641C25.6284 20.5363 25.7204 20.7623 25.7251 20.9985C25.7299 21.2346 25.6471 21.4641 25.4927 21.6428Z" fill="white"/>
</svg>
