<svg width="35" height="38" viewBox="0 0 35 38" fill="none" xmlns="http://www.w3.org/2000/svg">
<path d="M17.5085 0C8.11605 0 0.493164 8.512 0.493164 19C0.493164 29.488 8.11605 38 17.5085 38C26.901 38 34.5239 29.488 34.5239 19C34.5239 8.512 26.901 0 17.5085 0ZM23.6511 12.046C25.4717 12.046 26.935 13.68 26.935 15.713C26.935 17.746 25.4717 19.38 23.6511 19.38C21.8304 19.38 20.3671 17.746 20.3671 15.713C20.3501 13.68 21.8304 12.046 23.6511 12.046ZM13.4419 9.044C15.6539 9.044 17.4575 11.058 17.4575 13.528C17.4575 15.998 15.6539 18.012 13.4419 18.012C11.2299 18.012 9.42623 15.998 9.42623 13.528C9.42623 11.039 11.2128 9.044 13.4419 9.044ZM13.4419 26.391V33.516C9.35817 32.091 6.12525 28.576 4.69596 24.092C6.48257 21.964 10.9406 20.881 13.4419 20.881C14.3437 20.881 15.4837 21.033 16.6748 21.299C13.8843 22.952 13.4419 25.137 13.4419 26.391ZM17.5085 34.2C17.0491 34.2 16.6067 34.181 16.1643 34.124V26.391C16.1643 23.693 21.1668 22.344 23.6511 22.344C25.4717 22.344 28.6196 23.085 30.185 24.529C28.1942 30.172 23.2767 34.2 17.5085 34.2Z" fill="#626262"/>
</svg>
