<svg width="1440" height="1024" viewBox="0 0 1440 1024" fill="none" xmlns="http://www.w3.org/2000/svg">
<g clip-path="url(#clip0)">
<rect width="1440" height="1024" fill="#92C0A3"/>
<path fill-rule="evenodd" clip-rule="evenodd" d="M128.521 224.193C168.393 221.7 206.309 243.787 238.895 266.899C269.288 288.456 279.454 329.448 308.977 352.183C349.731 383.568 433.563 373.74 443.233 424.261C453.106 475.843 372.316 500.272 346.023 545.735C328.443 576.135 327.341 612.128 315.47 645.178C299.399 689.919 306.739 756.645 263.316 775.996C219.249 795.634 176.74 730.079 128.521 728.491C82.5642 726.977 43.4081 774.086 -2.06372 767.254C-47.9047 760.367 -82.0009 722.387 -116.7 691.649C-155.789 657.022 -199.917 624.068 -218.705 575.344C-238.083 525.09 -250.55 462.157 -223.048 415.848C-193.886 366.744 -125.267 361.075 -75.1695 333.654C-41.6673 315.316 -9.04277 298.375 24.5997 280.296C59.7163 261.425 88.7331 226.68 128.521 224.193Z" fill="#B4DDBF" fill-opacity="0.2"/>
<path fill-rule="evenodd" clip-rule="evenodd" d="M872.1 599.486C896.094 592.719 918.257 569.34 942.204 576.27C964.939 582.849 969.911 613.469 984.547 632.026C999.087 650.461 1022.14 663.29 1028.62 685.837C1035.13 708.496 1026.95 732.618 1019.93 755.125C1013.22 776.648 1007.7 802.091 988.597 814.135C968.71 826.672 942.022 813.638 919.055 818.723C902.069 822.483 889.189 836.664 872.1 839.926C853.365 843.502 833.515 845.033 815.612 838.467C797.242 831.73 784.397 815.955 770.175 802.544C754.265 787.542 735.009 774.766 726.651 754.582C717.957 733.586 719.175 709.886 722.503 687.413C725.971 663.998 727.791 636.187 746.368 621.46C765.705 606.13 794.467 615.324 818.798 611.071C836.936 607.901 854.379 604.483 872.1 599.486Z" fill="#B4DDBF" fill-opacity="0.2"/>
<path fill-rule="evenodd" clip-rule="evenodd" d="M1132.7 161.278C1165.69 144.175 1206.08 163.619 1242.26 172.145C1272.67 179.314 1301.52 190.54 1327.91 207.288C1352.23 222.721 1373.62 242.146 1389.95 265.876C1405.51 288.492 1402.99 319.972 1420.18 341.376C1452.09 381.097 1519.8 393.269 1532 442.734C1542.32 484.567 1504.25 526.175 1473.1 555.908C1443.14 584.514 1399.4 590.289 1361.05 605.935C1325.57 620.406 1291.55 654.935 1254.51 645.075C1214.62 634.453 1208.19 573.892 1171.27 555.409C1136.54 538.026 1082.89 574.659 1056.64 546.029C1030.94 518.003 1063.98 471.184 1059.43 433.434C1055.57 401.391 1028.59 373.911 1032.04 341.826C1035.52 309.418 1062.48 285.595 1078.35 257.135C1096.47 224.646 1099.69 178.397 1132.7 161.278Z" fill="white" fill-opacity="0.2"/>
</g>
<defs>
<clipPath id="clip0">
<rect width="1440" height="1024" fill="white" transform="matrix(1 0 0 -1 0 1024)"/>
</clipPath>
</defs>
</svg>
