<svg width="1440" height="1024" viewBox="0 0 1440 1024" fill="none" xmlns="http://www.w3.org/2000/svg">
<g clip-path="url(#clip0)">
<rect width="1440" height="1024" fill="#92C0A3"/>
<path fill-rule="evenodd" clip-rule="evenodd" d="M128.521 224.193C168.393 221.7 206.309 243.787 238.895 266.899C269.288 288.456 279.454 329.448 308.977 352.183C349.731 383.568 433.563 373.74 443.233 424.261C453.106 475.843 372.316 500.272 346.023 545.735C328.443 576.135 327.341 612.128 315.47 645.178C299.399 689.919 306.739 756.645 263.316 775.996C219.249 795.634 176.74 730.079 128.521 728.491C82.5642 726.977 43.4081 774.086 -2.06372 767.254C-47.9047 760.367 -82.0009 722.387 -116.7 691.649C-155.789 657.022 -199.917 624.068 -218.705 575.344C-238.083 525.09 -250.55 462.157 -223.048 415.848C-193.886 366.744 -125.267 361.075 -75.1695 333.654C-41.6673 315.316 -9.04277 298.375 24.5997 280.296C59.7163 261.425 88.7331 226.68 128.521 224.193Z" fill="#B4DDBF" fill-opacity="0.4"/>
<path fill-rule="evenodd" clip-rule="evenodd" d="M872.1 599.486C896.094 592.719 918.257 569.34 942.204 576.27C964.939 582.849 969.911 613.469 984.547 632.026C999.087 650.461 1022.14 663.29 1028.62 685.837C1035.13 708.496 1026.95 732.618 1019.93 755.125C1013.22 776.648 1007.7 802.091 988.597 814.135C968.71 826.672 942.022 813.638 919.055 818.723C902.069 822.483 889.189 836.664 872.1 839.926C853.365 843.502 833.515 845.033 815.612 838.467C797.242 831.73 784.397 815.955 770.175 802.544C754.265 787.542 735.009 774.766 726.651 754.582C717.957 733.586 719.175 709.886 722.503 687.413C725.971 663.998 727.791 636.187 746.368 621.46C765.705 606.13 794.467 615.324 818.798 611.071C836.936 607.901 854.379 604.483 872.1 599.486Z" fill="#B4DDBF" fill-opacity="0.4"/>
<path fill-rule="evenodd" clip-rule="evenodd" d="M1131.7 151.278C1164.69 134.175 1205.08 153.619 1241.26 162.145C1271.67 169.314 1300.52 180.54 1326.91 197.288C1351.23 212.721 1372.62 232.146 1388.95 255.876C1404.51 278.492 1401.99 309.972 1419.18 331.376C1451.09 371.097 1518.8 383.269 1531 432.734C1541.32 474.567 1503.25 516.175 1472.1 545.908C1442.14 574.514 1398.4 580.289 1360.05 595.935C1324.57 610.406 1290.55 644.935 1253.51 635.075C1213.62 624.453 1207.19 563.892 1170.27 545.409C1135.54 528.026 1081.89 564.659 1055.64 536.029C1029.94 508.003 1062.98 461.184 1058.43 423.434C1054.57 391.391 1027.59 363.911 1031.04 331.826C1034.52 299.418 1061.48 275.595 1077.35 247.135C1095.47 214.646 1098.69 168.397 1131.7 151.278Z" fill="#B4DDBF" fill-opacity="0.2"/>
</g>
<defs>
<clipPath id="clip0">
<rect width="1440" height="1024" fill="white" transform="matrix(1 0 0 -1 0 1024)"/>
</clipPath>
</defs>
</svg>
