<svg width="1440" height="935" viewBox="0 0 1440 935" fill="none" xmlns="http://www.w3.org/2000/svg">
<g clip-path="url(#clip0)">
<path fill-rule="evenodd" clip-rule="evenodd" d="M1377.19 491.979C1411.54 483.533 1448.3 480.794 1480.68 495.044C1517.71 511.341 1545.87 541.415 1567.37 575.68C1594.58 619.04 1638.26 668.556 1619.42 716.152C1600.37 764.291 1533.77 769.239 1484.48 785.106C1449.46 796.38 1412.6 784.146 1377.19 794.131C1319.34 810.443 1269.57 885.476 1214.58 861.212C1163.68 838.751 1184.18 758.321 1172.68 703.893C1162.72 656.697 1121.75 601.954 1151.87 564.268C1185.01 522.791 1254.51 554.441 1305.07 538.22C1332.94 529.277 1348.76 498.969 1377.19 491.979Z" fill="#B4DDBF" fill-opacity="0.4"/>
<path fill-rule="evenodd" clip-rule="evenodd" d="M127.197 51.3638C168.398 47.8183 207.044 70.736 239.561 96.2363C271.126 120.991 297.28 153.413 306.918 192.307C316.166 229.629 309.216 269.833 290.97 303.694C274.563 334.141 239.755 346.419 212.426 367.662C183.781 389.928 163.501 430.467 127.197 430.995C90.8889 431.523 70.0717 390.689 40.1426 370.168C9.03012 348.836 -39.4128 344.223 -51.4401 308.513C-63.4614 272.822 -30.0267 239.085 -15.7465 204.233C-2.80268 172.642 4.74815 139.387 28.0804 114.435C55.4845 85.1275 87.1791 54.8073 127.197 51.3638Z" fill="#B4DDBF" fill-opacity="0.4"/>
</g>
<defs>
<clipPath id="clip0">
<rect width="1440" height="935" fill="white" transform="matrix(-1 0 0 1 1440 0)"/>
</clipPath>
</defs>
</svg>
