<svg width="1440" height="104" viewBox="0 0 1440 104" fill="none" xmlns="http://www.w3.org/2000/svg">
<g clip-path="url(#clip0)">
<path d="M1065.5 44.9999C1238 -9.9992 1440 6.49398 1440 6.49398V104.992H0V63.5008C0 63.5008 103.5 91.0015 247.5 80.5007C391.5 70 430.5 44.9999 580.5 44.9999C730.5 44.9999 893 99.9991 1065.5 44.9999Z" fill="white" fill-opacity="0.7"/>
<path d="M173.5 68.2545C11.8579 81.2439 0 104.61 0 104.61H1440C1440 104.61 1334.48 10.6107 1183 1.61325C1031.52 -7.38417 901.039 22.1318 651.187 68.2545C401.334 114.377 335.142 55.2652 173.5 68.2545Z" fill="#92C0A3" stroke="#92C0A3"/>
</g>
<defs>
<clipPath id="clip0">
<rect width="1440" height="104" fill="white"/>
</clipPath>
</defs>
</svg>
